<svg width="392" height="27" viewBox="0 0 392 27" fill="none" xmlns="http://www.w3.org/2000/svg">
<path d="M33.4174 21.3716V8.38769H42.7265V11.0825H36.6511V21.3716H33.4174Z" fill="black"/>
<path d="M43.9756 21.6655C43.6652 21.6655 43.3794 21.6084 43.1181 21.494C42.8732 21.3797 42.6527 21.2327 42.4567 21.0531C42.277 20.8571 42.13 20.6366 42.0157 20.3916C41.9014 20.1303 41.8442 19.8445 41.8442 19.5342C41.8442 19.2402 41.9014 18.9626 42.0157 18.7013C42.13 18.44 42.277 18.2195 42.4567 18.0398C42.6527 17.8439 42.8732 17.6969 43.1181 17.5989C43.3794 17.4846 43.6652 17.4274 43.9756 17.4274C44.2695 17.4274 44.5472 17.4846 44.8085 17.5989C45.0698 17.6969 45.2903 17.8439 45.4699 18.0398C45.6659 18.2195 45.8129 18.44 45.9109 18.7013C46.0252 18.9626 46.0824 19.2402 46.0824 19.5342C46.0824 19.8445 46.0252 20.1303 45.9109 20.3916C45.8129 20.6366 45.6659 20.8571 45.4699 21.0531C45.2903 21.2327 45.0698 21.3797 44.8085 21.494C44.5472 21.6084 44.2695 21.6655 43.9756 21.6655Z" fill="black"/>
<path d="M62.3966 21.6655C61.3024 21.6655 60.2816 21.5022 59.3344 21.1756C58.3871 20.8489 57.5705 20.3345 56.8846 19.6322C56.1986 18.9299 55.6597 18.0235 55.2677 16.9129C54.8758 15.8024 54.6798 14.4632 54.6798 12.8953V12.4298C54.6798 10.9436 54.8758 9.66158 55.2677 8.58367C55.676 7.50577 56.2313 6.62385 56.9336 5.9379C57.6359 5.25196 58.4525 4.74568 59.3834 4.41904C60.3306 4.0924 61.335 3.92908 62.3966 3.92908C63.3765 3.92908 64.2829 4.05157 65.1159 4.29655C65.9651 4.5252 66.7082 4.87633 67.3452 5.34996C67.9821 5.82358 68.4966 6.43603 68.8885 7.18729C69.2968 7.93856 69.5418 8.82865 69.6235 9.85756H65.7773C65.5813 8.86132 65.1812 8.15088 64.5769 7.72625C63.989 7.28529 63.2622 7.06481 62.3966 7.06481C61.874 7.06481 61.3759 7.1628 60.9022 7.35878C60.4286 7.53843 60.0121 7.84057 59.6528 8.2652C59.3099 8.68983 59.0322 9.24512 58.8199 9.93106C58.6239 10.617 58.5259 11.4499 58.5259 12.4298V12.9443C58.5259 13.9895 58.6403 14.8715 58.8689 15.5901C59.0976 16.2923 59.3915 16.864 59.7508 17.3049C60.1101 17.7459 60.5184 18.0643 60.9757 18.2603C61.433 18.44 61.9066 18.5298 62.3966 18.5298C63.3765 18.5298 64.1523 18.293 64.7239 17.8194C65.2955 17.3457 65.6467 16.6516 65.7773 15.7371H69.6235C69.5418 16.815 69.2968 17.7295 68.8885 18.4808C68.4966 19.2321 67.9821 19.8445 67.3452 20.3181C66.7082 20.7918 65.9651 21.1347 65.1159 21.3471C64.2829 21.5594 63.3765 21.6655 62.3966 21.6655Z" fill="black"/>
<path d="M75.2383 21.3716V11.0825H71.0981V8.38769H82.6121V11.0825H78.472V21.3716H75.2383Z" fill="black"/>
<path d="M90.28 21.6655C89.3817 21.6655 88.5324 21.5349 87.7322 21.2736C86.9319 20.9959 86.2296 20.5876 85.6254 20.0487C85.0374 19.4934 84.572 18.7993 84.229 17.9664C83.886 17.1171 83.7145 16.129 83.7145 15.0021V14.5122C83.7145 13.4343 83.8778 12.4952 84.2045 11.6949C84.5475 10.8946 84.9966 10.2332 85.5519 9.71058C86.1235 9.17162 86.7931 8.77149 87.5607 8.51018C88.3446 8.23254 89.1694 8.09372 90.035 8.09372C92.1255 8.09372 93.7015 8.63267 94.7631 9.71058C95.841 10.7885 96.3799 12.3482 96.3799 14.3897V15.7371H87.0217C87.0217 16.325 87.1197 16.8313 87.3157 17.2559C87.5117 17.6642 87.7567 17.999 88.0507 18.2603C88.361 18.5216 88.7121 18.7095 89.1041 18.8238C89.496 18.9381 89.888 18.9953 90.28 18.9953C91.0965 18.9953 91.7253 18.8728 92.1663 18.6278C92.6236 18.3665 92.9339 18.0153 93.0972 17.5744H96.1349C96.0043 18.244 95.7675 18.8401 95.4245 19.3627C95.0979 19.869 94.6814 20.2937 94.1751 20.6366C93.6852 20.9796 93.1054 21.2327 92.4358 21.3961C91.7825 21.5757 91.0639 21.6655 90.28 21.6655ZM87.0217 13.5077H93.2197C93.2197 12.9851 93.138 12.5523 92.9747 12.2094C92.8114 11.8501 92.5909 11.5642 92.3133 11.3519C92.0356 11.1233 91.709 10.9681 91.3334 10.8865C90.9741 10.7885 90.5821 10.7395 90.1575 10.7395C89.7655 10.7395 89.3817 10.7885 89.0061 10.8865C88.6468 10.9845 88.3201 11.1478 88.0262 11.3764C87.7322 11.6051 87.4954 11.8991 87.3157 12.2584C87.1361 12.6013 87.0381 13.0178 87.0217 13.5077Z" fill="black"/>
<path d="M98.7051 26.2711V8.38769H101.694V10.372C102.053 9.73507 102.592 9.19612 103.311 8.75516C104.046 8.3142 104.919 8.09372 105.932 8.09372C107.696 8.09372 109.051 8.63267 109.999 9.71058C110.962 10.7885 111.444 12.389 111.444 14.5122V15.0021C111.444 16.0964 111.313 17.0681 111.052 17.9174C110.791 18.7503 110.415 19.4444 109.925 19.9997C109.452 20.5386 108.872 20.9551 108.186 21.2491C107.516 21.5267 106.765 21.6655 105.932 21.6655C105.066 21.6655 104.291 21.4777 103.605 21.1021C102.919 20.7101 102.363 20.1793 101.939 19.5097V26.2711H98.7051ZM105.148 18.9463C105.573 18.9463 105.965 18.8646 106.324 18.7013C106.7 18.5216 107.018 18.2685 107.279 17.9419C107.557 17.6152 107.769 17.2069 107.916 16.717C108.063 16.227 108.137 15.6554 108.137 15.0021V14.5122C108.137 13.8915 108.063 13.3526 107.916 12.8953C107.786 12.438 107.581 12.0542 107.304 11.7439C107.043 11.4336 106.724 11.2049 106.348 11.058C105.989 10.8946 105.589 10.813 105.148 10.813C104.691 10.813 104.266 10.8865 103.874 11.0335C103.482 11.1641 103.139 11.3764 102.845 11.6704C102.568 11.948 102.347 12.2829 102.184 12.6748C102.02 13.0668 101.939 13.5159 101.939 14.0222V15.4921C101.939 16.031 102.02 16.5128 102.184 16.9374C102.347 17.3621 102.568 17.7295 102.845 18.0398C103.139 18.3338 103.482 18.5625 103.874 18.7258C104.266 18.8728 104.691 18.9463 105.148 18.9463Z" fill="black"/>
<path d="M113.587 21.6655C113.456 21.6655 113.293 21.6574 113.097 21.641C112.901 21.641 112.738 21.6247 112.607 21.592V18.6768C112.64 18.6931 112.689 18.7013 112.754 18.7013C112.819 18.7013 112.893 18.7013 112.974 18.7013C113.285 18.7013 113.554 18.6115 113.783 18.4318C114.011 18.2358 114.199 17.9092 114.346 17.4519C114.493 16.9946 114.608 16.3903 114.689 15.6391C114.771 14.8715 114.812 13.9242 114.812 12.7973V8.38769H125.101V21.3716H121.867V11.0825H117.874V13.2873C117.874 14.9694 117.776 16.3577 117.58 17.4519C117.4 18.5298 117.131 19.3872 116.772 20.0242C116.429 20.6448 115.988 21.0776 115.449 21.3226C114.91 21.5512 114.289 21.6655 113.587 21.6655Z" fill="black"/>
<path d="M128.036 21.3716V8.38769H131.196V16.8884L137.124 8.38769H140.04V21.3716H136.879V12.8708L130.951 21.3716H128.036Z" fill="black"/>
<path d="M146.148 21.3716V11.0825H142.008V8.38769H153.522V11.0825H149.382V21.3716H146.148Z" fill="black"/>
<path d="M158.845 21.6655C158.143 21.6655 157.514 21.5594 156.959 21.3471C156.42 21.1347 155.963 20.8489 155.587 20.4896C155.212 20.1303 154.926 19.7057 154.73 19.2157C154.534 18.7095 154.436 18.1623 154.436 17.5744C154.436 16.2842 154.828 15.3206 155.612 14.6836C156.396 14.0304 157.555 13.7037 159.09 13.7037H162.961V13.0423C162.961 12.144 162.749 11.5234 162.324 11.1804C161.916 10.8375 161.328 10.666 160.56 10.666C159.842 10.666 159.311 10.7966 158.968 11.058C158.625 11.3029 158.437 11.6377 158.404 12.0624H155.171C155.203 11.4908 155.35 10.9681 155.612 10.4945C155.873 10.0045 156.232 9.58809 156.69 9.24512C157.163 8.88581 157.735 8.60817 158.404 8.41219C159.074 8.19987 159.834 8.09372 160.683 8.09372C161.516 8.09372 162.267 8.18354 162.937 8.36319C163.623 8.54284 164.202 8.83682 164.676 9.24512C165.166 9.65341 165.542 10.176 165.803 10.813C166.064 11.4499 166.195 12.2175 166.195 13.1158V18.0643C166.195 18.7503 166.203 19.3546 166.219 19.8772C166.252 20.3835 166.301 20.8816 166.366 21.3716H163.353C163.32 21.0613 163.288 20.7836 163.255 20.5386C163.239 20.2773 163.231 19.9752 163.231 19.6322C163.051 19.9099 162.822 20.1793 162.545 20.4406C162.267 20.6856 161.949 20.8979 161.589 21.0776C161.23 21.2572 160.822 21.3961 160.364 21.494C159.907 21.6084 159.401 21.6655 158.845 21.6655ZM159.825 19.2402C160.25 19.2402 160.65 19.1831 161.026 19.0688C161.418 18.9381 161.753 18.7585 162.03 18.5298C162.324 18.2848 162.553 17.9909 162.716 17.6479C162.879 17.2886 162.961 16.8966 162.961 16.472V15.8105H159.703C159.066 15.8105 158.576 15.9657 158.233 16.276C157.906 16.57 157.743 16.9619 157.743 17.4519C157.743 17.9745 157.906 18.4073 158.233 18.7503C158.56 19.0769 159.09 19.2402 159.825 19.2402Z" fill="black"/>
<path d="M169.017 21.3716V8.38769H172.839L176.44 15.3696L180.041 8.38769H183.716V21.3716H180.604V12.9198L177.469 18.7993H175.264L172.128 12.9198V21.3716H169.017Z" fill="black"/>
<path d="M190.568 21.6655C189.866 21.6655 189.237 21.5594 188.682 21.3471C188.143 21.1347 187.686 20.8489 187.31 20.4896C186.934 20.1303 186.649 19.7057 186.453 19.2157C186.257 18.7095 186.159 18.1623 186.159 17.5744C186.159 16.2842 186.551 15.3206 187.335 14.6836C188.118 14.0304 189.278 13.7037 190.813 13.7037H194.684V13.0423C194.684 12.144 194.472 11.5234 194.047 11.1804C193.639 10.8375 193.051 10.666 192.283 10.666C191.565 10.666 191.034 10.7966 190.691 11.058C190.348 11.3029 190.16 11.6377 190.127 12.0624H186.894C186.926 11.4908 187.073 10.9681 187.335 10.4945C187.596 10.0045 187.955 9.58809 188.412 9.24512C188.886 8.88581 189.458 8.60817 190.127 8.41219C190.797 8.19987 191.556 8.09372 192.406 8.09372C193.239 8.09372 193.99 8.18354 194.659 8.36319C195.345 8.54284 195.925 8.83682 196.399 9.24512C196.889 9.65341 197.264 10.176 197.526 10.813C197.787 11.4499 197.918 12.2175 197.918 13.1158V18.0643C197.918 18.7503 197.926 19.3546 197.942 19.8772C197.975 20.3835 198.024 20.8816 198.089 21.3716H195.076C195.043 21.0613 195.011 20.7836 194.978 20.5386C194.962 20.2773 194.953 19.9752 194.953 19.6322C194.774 19.9099 194.545 20.1793 194.267 20.4406C193.99 20.6856 193.671 20.8979 193.312 21.0776C192.953 21.2572 192.544 21.3961 192.087 21.494C191.63 21.6084 191.124 21.6655 190.568 21.6655ZM191.548 19.2402C191.973 19.2402 192.373 19.1831 192.749 19.0688C193.141 18.9381 193.475 18.7585 193.753 18.5298C194.047 18.2848 194.276 17.9909 194.439 17.6479C194.602 17.2886 194.684 16.8966 194.684 16.472V15.8105H191.426C190.789 15.8105 190.299 15.9657 189.956 16.276C189.629 16.57 189.466 16.9619 189.466 17.4519C189.466 17.9745 189.629 18.4073 189.956 18.7503C190.282 19.0769 190.813 19.2402 191.548 19.2402Z" fill="black"/>
<path d="M200.74 21.3716V8.38769H203.973V13.4832H205.198L209.24 8.38769H212.817L207.771 14.5367L213.062 21.3716H209.191L205.198 16.031H203.973V21.3716H200.74Z" fill="black"/>
<path d="M214.75 25.2912L215.73 21.3716V18.0154H219.233V21.3716L216.441 25.2912H214.75Z" fill="black"/>
<path d="M228.933 21.3716V4.22305H232.632V11.2049H234.102L239.835 4.22305H243.95L237.042 12.2829L244.195 21.3716H239.786L234.102 13.8997H232.632V21.3716H228.933Z" fill="black"/>
<path d="M251.548 21.6655C250.666 21.6655 249.833 21.5349 249.049 21.2736C248.265 20.9959 247.571 20.5795 246.967 20.0242C246.379 19.4689 245.913 18.7748 245.57 17.9419C245.227 17.1089 245.056 16.129 245.056 15.0021V14.5122C245.056 13.4506 245.227 12.5197 245.57 11.7194C245.913 10.9191 246.379 10.2577 246.967 9.73507C247.571 9.19612 248.265 8.78782 249.049 8.51018C249.833 8.23254 250.666 8.09372 251.548 8.09372C252.43 8.09372 253.263 8.23254 254.047 8.51018C254.831 8.77149 255.516 9.17162 256.104 9.71058C256.709 10.2495 257.182 10.9191 257.525 11.7194C257.868 12.5197 258.04 13.4506 258.04 14.5122V15.0021C258.04 16.1127 257.868 17.0926 257.525 17.9419C257.182 18.7748 256.709 19.4689 256.104 20.0242C255.516 20.5795 254.831 20.9959 254.047 21.2736C253.263 21.5349 252.43 21.6655 251.548 21.6655ZM251.548 18.9218C252.005 18.9218 252.43 18.8401 252.822 18.6768C253.214 18.5135 253.548 18.2685 253.826 17.9419C254.104 17.5989 254.324 17.1824 254.488 16.6925C254.651 16.2025 254.733 15.6391 254.733 15.0021V14.5122C254.733 13.9242 254.651 13.4016 254.488 12.9443C254.324 12.487 254.104 12.1032 253.826 11.7929C253.548 11.4826 253.214 11.2458 252.822 11.0825C252.43 10.9191 252.005 10.8375 251.548 10.8375C251.091 10.8375 250.666 10.9191 250.274 11.0825C249.882 11.2458 249.547 11.4826 249.27 11.7929C248.992 12.1032 248.771 12.487 248.608 12.9443C248.445 13.4016 248.363 13.9242 248.363 14.5122V15.0021C248.363 15.6554 248.445 16.227 248.608 16.717C248.771 17.2069 248.992 17.6152 249.27 17.9419C249.547 18.2685 249.882 18.5135 250.274 18.6768C250.666 18.8401 251.091 18.9218 251.548 18.9218Z" fill="black"/>
<path d="M267.952 21.3716V16.619C267.576 16.8313 267.135 17.0273 266.629 17.2069C266.123 17.3866 265.478 17.4764 264.694 17.4764C263.077 17.4764 261.876 17.1008 261.092 16.3495C260.309 15.5982 259.917 14.4142 259.917 12.7973V8.38769H263.15V12.4298C263.15 13.2791 263.33 13.8752 263.689 14.2182C264.049 14.5612 264.669 14.7326 265.551 14.7326C266.155 14.7326 266.662 14.6673 267.07 14.5367C267.495 14.3897 267.789 14.2427 267.952 14.0957V8.38769H271.186V21.3716H267.952Z" fill="black"/>
<path d="M280.234 21.6655C279.336 21.6655 278.487 21.5349 277.686 21.2736C276.886 20.9959 276.184 20.5876 275.579 20.0487C274.992 19.4934 274.526 18.7993 274.183 17.9664C273.84 17.1171 273.669 16.129 273.669 15.0021V14.5122C273.669 13.4343 273.832 12.4952 274.159 11.6949C274.502 10.8946 274.951 10.2332 275.506 9.71058C276.078 9.17162 276.747 8.77149 277.515 8.51018C278.299 8.23254 279.123 8.09372 279.989 8.09372C282.08 8.09372 283.656 8.63267 284.717 9.71058C285.795 10.7885 286.334 12.3482 286.334 14.3897V15.7371H276.976C276.976 16.325 277.074 16.8313 277.27 17.2559C277.466 17.6642 277.711 17.999 278.005 18.2603C278.315 18.5216 278.666 18.7095 279.058 18.8238C279.45 18.9381 279.842 18.9953 280.234 18.9953C281.051 18.9953 281.679 18.8728 282.12 18.6278C282.578 18.3665 282.888 18.0153 283.051 17.5744H286.089C285.958 18.244 285.722 18.8401 285.379 19.3627C285.052 19.869 284.636 20.2937 284.129 20.6366C283.639 20.9796 283.059 21.2327 282.39 21.3961C281.737 21.5757 281.018 21.6655 280.234 21.6655ZM276.976 13.5077H283.174C283.174 12.9851 283.092 12.5523 282.929 12.2094C282.766 11.8501 282.545 11.5642 282.267 11.3519C281.99 11.1233 281.663 10.9681 281.287 10.8865C280.928 10.7885 280.536 10.7395 280.112 10.7395C279.72 10.7395 279.336 10.7885 278.96 10.8865C278.601 10.9845 278.274 11.1478 277.98 11.3764C277.686 11.6051 277.449 11.8991 277.27 12.2584C277.09 12.6013 276.992 13.0178 276.976 13.5077Z" fill="black"/>
<path d="M291.58 21.3716V11.0825H287.44V8.38769H298.954V11.0825H294.814V21.3716H291.58Z" fill="black"/>
<path d="M306.548 21.6655C305.666 21.6655 304.834 21.5349 304.05 21.2736C303.266 20.9959 302.572 20.5795 301.967 20.0242C301.379 19.4689 300.914 18.7748 300.571 17.9419C300.228 17.1089 300.056 16.129 300.056 15.0021V14.5122C300.056 13.4506 300.228 12.5197 300.571 11.7194C300.914 10.9191 301.379 10.2577 301.967 9.73507C302.572 9.19612 303.266 8.78782 304.05 8.51018C304.834 8.23254 305.666 8.09372 306.548 8.09372C307.43 8.09372 308.263 8.23254 309.047 8.51018C309.831 8.77149 310.517 9.17162 311.105 9.71058C311.709 10.2495 312.183 10.9191 312.526 11.7194C312.869 12.5197 313.04 13.4506 313.04 14.5122V15.0021C313.04 16.1127 312.869 17.0926 312.526 17.9419C312.183 18.7748 311.709 19.4689 311.105 20.0242C310.517 20.5795 309.831 20.9959 309.047 21.2736C308.263 21.5349 307.43 21.6655 306.548 21.6655ZM306.548 18.9218C307.006 18.9218 307.43 18.8401 307.822 18.6768C308.214 18.5135 308.549 18.2685 308.827 17.9419C309.104 17.5989 309.325 17.1824 309.488 16.6925C309.651 16.2025 309.733 15.6391 309.733 15.0021V14.5122C309.733 13.9242 309.651 13.4016 309.488 12.9443C309.325 12.487 309.104 12.1032 308.827 11.7929C308.549 11.4826 308.214 11.2458 307.822 11.0825C307.43 10.9191 307.006 10.8375 306.548 10.8375C306.091 10.8375 305.666 10.9191 305.275 11.0825C304.883 11.2458 304.548 11.4826 304.27 11.7929C303.992 12.1032 303.772 12.487 303.609 12.9443C303.445 13.4016 303.364 13.9242 303.364 14.5122V15.0021C303.364 15.6554 303.445 16.227 303.609 16.717C303.772 17.2069 303.992 17.6152 304.27 17.9419C304.548 18.2685 304.883 18.5135 305.275 18.6768C305.666 18.8401 306.091 18.9218 306.548 18.9218Z" fill="black"/>
<path d="M315.358 21.3716V8.38769H321.874C322.724 8.38769 323.442 8.47752 324.03 8.65717C324.635 8.82049 325.125 9.0573 325.5 9.36761C325.892 9.67791 326.178 10.0454 326.358 10.47C326.537 10.8946 326.627 11.3601 326.627 11.8664C326.627 12.4707 326.447 13.0341 326.088 13.5567C325.729 14.0794 325.231 14.4305 324.594 14.6101C325.394 14.8061 326.015 15.1818 326.456 15.7371C326.897 16.2923 327.117 16.9374 327.117 17.6724C327.117 18.7993 326.725 19.6975 325.941 20.3671C325.174 21.0368 323.981 21.3716 322.364 21.3716H315.358ZM318.592 18.8483H321.752C322.487 18.8483 323.026 18.7258 323.369 18.4808C323.712 18.2358 323.883 17.8765 323.883 17.4029C323.883 16.9293 323.712 16.57 323.369 16.325C323.026 16.08 322.487 15.9575 321.752 15.9575H318.592V18.8483ZM318.592 13.6057H321.434C322.185 13.6057 322.699 13.4832 322.977 13.2383C323.255 12.9933 323.393 12.6585 323.393 12.2339C323.393 11.8092 323.246 11.4826 322.952 11.2539C322.675 11.0253 322.168 10.911 321.434 10.911H318.592V13.6057Z" fill="black"/>
<path d="M333.369 21.6655C332.666 21.6655 332.038 21.5594 331.482 21.3471C330.943 21.1347 330.486 20.8489 330.111 20.4896C329.735 20.1303 329.449 19.7057 329.253 19.2157C329.057 18.7095 328.959 18.1623 328.959 17.5744C328.959 16.2842 329.351 15.3206 330.135 14.6836C330.919 14.0304 332.079 13.7037 333.614 13.7037H337.484V13.0423C337.484 12.144 337.272 11.5234 336.847 11.1804C336.439 10.8375 335.851 10.666 335.084 10.666C334.365 10.666 333.834 10.7966 333.491 11.058C333.148 11.3029 332.96 11.6377 332.928 12.0624H329.694C329.727 11.4908 329.874 10.9681 330.135 10.4945C330.396 10.0045 330.756 9.58809 331.213 9.24512C331.687 8.88581 332.258 8.60817 332.928 8.41219C333.597 8.19987 334.357 8.09372 335.206 8.09372C336.039 8.09372 336.79 8.18354 337.46 8.36319C338.146 8.54284 338.726 8.83682 339.199 9.24512C339.689 9.65341 340.065 10.176 340.326 10.813C340.587 11.4499 340.718 12.2175 340.718 13.1158V18.0643C340.718 18.7503 340.726 19.3546 340.743 19.8772C340.775 20.3835 340.824 20.8816 340.89 21.3716H337.876C337.844 21.0613 337.811 20.7836 337.778 20.5386C337.762 20.2773 337.754 19.9752 337.754 19.6322C337.574 19.9099 337.346 20.1793 337.068 20.4406C336.79 20.6856 336.472 20.8979 336.113 21.0776C335.753 21.2572 335.345 21.3961 334.888 21.494C334.43 21.6084 333.924 21.6655 333.369 21.6655ZM334.349 19.2402C334.773 19.2402 335.173 19.1831 335.549 19.0688C335.941 18.9381 336.276 18.7585 336.553 18.5298C336.847 18.2848 337.076 17.9909 337.239 17.6479C337.403 17.2886 337.484 16.8966 337.484 16.472V15.8105H334.226C333.589 15.8105 333.099 15.9657 332.756 16.276C332.43 16.57 332.266 16.9619 332.266 17.4519C332.266 17.9745 332.43 18.4073 332.756 18.7503C333.083 19.0769 333.614 19.2402 334.349 19.2402Z" fill="black"/>
<path d="M354.943 21.6655C353.898 21.6655 352.975 21.5267 352.175 21.2491C351.391 20.9551 350.73 20.555 350.191 20.0487C349.652 19.5424 349.243 18.9463 348.966 18.2603C348.704 17.5581 348.574 16.7986 348.574 15.982H352.273C352.273 16.7986 352.485 17.4274 352.91 17.8684C353.351 18.3093 354.053 18.5298 355.017 18.5298C355.899 18.5298 356.552 18.3257 356.976 17.9174C357.401 17.5091 357.613 16.9538 357.613 16.2515C357.613 15.5329 357.401 14.9694 356.976 14.5612C356.552 14.1529 355.874 13.9487 354.943 13.9487H353.375V11.1559H354.943C355.776 11.1559 356.389 10.9763 356.78 10.617C357.172 10.2414 357.368 9.71874 357.368 9.04913C357.368 8.42852 357.172 7.94673 356.78 7.60376C356.405 7.24446 355.817 7.06481 355.017 7.06481C354.167 7.06481 353.539 7.26895 353.13 7.67725C352.722 8.06922 352.518 8.63267 352.518 9.36761H348.819C348.819 8.55101 348.949 7.80791 349.211 7.1383C349.488 6.46869 349.888 5.89708 350.411 5.42345C350.934 4.93349 351.571 4.56602 352.322 4.32105C353.089 4.05974 353.963 3.92908 354.943 3.92908C355.923 3.92908 356.789 4.05157 357.54 4.29655C358.308 4.5252 358.953 4.85183 359.475 5.27646C359.998 5.68476 360.39 6.17472 360.651 6.74634C360.929 7.31795 361.068 7.93856 361.068 8.60817C361.068 9.55542 360.806 10.3639 360.284 11.0335C359.761 11.6867 359.051 12.1522 358.152 12.4298C359.165 12.7238 359.941 13.2138 360.48 13.8997C361.035 14.5693 361.313 15.4676 361.313 16.5945C361.313 17.3294 361.166 18.0072 360.872 18.6278C360.578 19.2484 360.153 19.7874 359.598 20.2447C359.059 20.6856 358.389 21.0368 357.589 21.2981C356.805 21.543 355.923 21.6655 354.943 21.6655Z" fill="black"/>
<path d="M363.556 21.3716V18.2848H367.451V8.02022L363.556 10.7885V7.01581L367.475 4.22305H371.175V18.2848H374.335V21.3716H363.556Z" fill="black"/>
<path d="M375.14 21.3716L381.51 4.22305H385.209L391.554 21.3716H387.634L386.287 17.7704H380.064L378.717 21.3716H375.14ZM381.142 14.8306H385.209L383.176 8.80416L381.142 14.8306Z" fill="black"/>
<path fill-rule="evenodd" clip-rule="evenodd" d="M9.02078 3.00684C5.56427 3.00684 2.76222 5.8089 2.76222 9.26541C2.76222 12.8464 4.47743 16.3482 6.30144 19.0365C7.20262 20.3647 8.1054 21.4579 8.78214 22.218C8.86534 22.3114 8.94503 22.3997 9.02078 22.4827C9.09653 22.3997 9.17622 22.3114 9.25942 22.218C9.93616 21.4579 10.8389 20.3647 11.7401 19.0365C13.5641 16.3482 15.2793 12.8464 15.2793 9.26541C15.2793 5.8089 12.4773 3.00684 9.02078 3.00684ZM9.02078 24.286C8.15976 25.1945 8.15948 25.1942 8.15918 25.194L8.15641 25.1913L8.15034 25.1855L8.13019 25.1662C8.11326 25.1498 8.08939 25.1267 8.05906 25.0968C7.9984 25.0372 7.91182 24.951 7.80303 24.8397C7.58552 24.6173 7.27875 24.2941 6.91246 23.8827C6.18102 23.0613 5.20624 21.8812 4.22984 20.4421C2.29872 17.5959 0.258789 13.5874 0.258789 9.26541C0.258789 4.4263 4.18167 0.503418 9.02078 0.503418C13.8599 0.503418 17.7828 4.4263 17.7828 9.26541C17.7828 13.5874 15.7428 17.5959 13.8117 20.4421C12.8353 21.8812 11.8605 23.0613 11.1291 23.8827C10.7628 24.2941 10.456 24.6173 10.2385 24.8397C10.1297 24.951 10.0432 25.0372 9.9825 25.0968C9.95217 25.1267 9.92831 25.1498 9.91137 25.1662L9.89122 25.1855L9.88515 25.1913L9.88313 25.1932C9.88283 25.1935 9.88181 25.1945 9.02078 24.286ZM9.02078 24.286L9.88181 25.1945C9.39898 25.6521 8.642 25.6515 8.15918 25.194L9.02078 24.286ZM9.02078 8.0137C8.32948 8.0137 7.76907 8.57411 7.76907 9.26541C7.76907 9.95671 8.32948 10.5171 9.02078 10.5171C9.71208 10.5171 10.2725 9.95671 10.2725 9.26541C10.2725 8.57411 9.71208 8.0137 9.02078 8.0137ZM5.26564 9.26541C5.26564 7.1915 6.94688 5.51027 9.02078 5.51027C11.0947 5.51027 12.7759 7.1915 12.7759 9.26541C12.7759 11.3393 11.0947 13.0206 9.02078 13.0206C6.94688 13.0206 5.26564 11.3393 5.26564 9.26541Z" fill="black"/>
</svg>
