<svg width="131" height="25" viewBox="0 0 131 25" fill="none" xmlns="http://www.w3.org/2000/svg">
<path d="M27.7779 0H15.5557V2.5H25.5557V22.5H15.5557V25H27.7779V0Z" fill="black"/>
<path d="M11.1111 6.25L17.1269 13.0178L11.1111 19.7855L9.53976 18.0178L12.8731 14.2678H0V11.7678H12.8731L9.53976 8.01777L11.1111 6.25Z" fill="black"/>
<path d="M52.0718 23V4.87135H60.0226C61.093 4.87135 62.0081 4.98357 62.7678 5.20802C63.5447 5.43247 64.1835 5.75188 64.6842 6.16625C65.1849 6.58062 65.5475 7.08995 65.7719 7.69424C66.0136 8.28126 66.1345 8.95461 66.1345 9.71429C66.1345 10.6466 65.8842 11.4495 65.3835 12.1228C64.9 12.7789 64.2526 13.2537 63.4411 13.5472C64.5288 13.7889 65.3748 14.2723 65.9791 14.9975C66.6007 15.7226 66.9114 16.6809 66.9114 17.8722C66.9114 18.6491 66.7906 19.357 66.5489 19.9958C66.3072 20.6174 65.9187 21.1526 65.3835 21.6015C64.8482 22.0504 64.1662 22.3957 63.3375 22.6374C62.5088 22.8791 61.516 23 60.3592 23H52.0718ZM55.9825 19.9181H59.66C60.2988 19.9181 60.834 19.8663 61.2657 19.7627C61.6973 19.6419 62.0426 19.4865 62.3016 19.2966C62.5606 19.0894 62.7419 18.839 62.8454 18.5455C62.949 18.252 63.0008 17.9067 63.0008 17.5096C63.0008 17.1125 62.9404 16.7672 62.8195 16.4737C62.716 16.1629 62.5347 15.9039 62.2757 15.6967C62.0167 15.4896 61.6714 15.3342 61.2398 15.2306C60.8081 15.127 60.2729 15.0752 59.6341 15.0752H55.9825V19.9181ZM55.9825 12.2782H59.2456C59.8326 12.2782 60.3161 12.2264 60.6959 12.1228C61.0757 12.0192 61.3779 11.8725 61.6023 11.6825C61.8268 11.4926 61.9822 11.2682 62.0685 11.0092C62.1721 10.7502 62.2239 10.4481 62.2239 10.1028C62.2239 9.75745 62.1721 9.4553 62.0685 9.19632C61.9822 8.92008 61.8268 8.69563 61.6023 8.52297C61.3779 8.35032 61.0757 8.2122 60.6959 8.1086C60.3161 8.00501 59.8413 7.95322 59.2715 7.95322H55.9825V12.2782Z" fill="black"/>
<path d="M69.5106 23V9.27402H72.9291V13.9616H75.3376C77.116 13.9616 78.4454 14.3414 79.3259 15.1011C80.2065 15.8608 80.6467 16.9916 80.6467 18.4937C80.6467 19.1671 80.5431 19.7886 80.336 20.3584C80.146 20.9109 79.8353 21.3857 79.4036 21.7828C78.972 22.1626 78.4195 22.4648 77.7461 22.6892C77.0901 22.8964 76.2872 23 75.3376 23H69.5106ZM72.9291 20.3325H74.9492C75.7952 20.3325 76.3822 20.1771 76.7102 19.8663C77.0555 19.5556 77.2282 19.098 77.2282 18.4937C77.2282 17.8549 77.0555 17.3887 76.7102 17.0952C76.3822 16.8017 75.7952 16.655 74.9492 16.655H72.9291V20.3325ZM82.1488 23V9.27402H85.5674V23H82.1488Z" fill="black"/>
<path d="M88.6812 23V9.27402H92.0221V18.2607L98.2894 9.27402H101.371V23H98.0304V14.0134L91.7631 23H88.6812ZM95.0262 7.77193C93.4551 7.77193 92.3242 7.46115 91.6336 6.8396C90.9602 6.20078 90.6236 5.26845 90.6236 4.04261H93.7054C93.7054 4.62963 93.8177 5.05263 94.0421 5.31161C94.2666 5.55333 94.5946 5.67419 95.0262 5.67419C95.4751 5.67419 95.8032 5.55333 96.0104 5.31161C96.2348 5.05263 96.347 4.62963 96.347 4.04261H99.4289C99.4289 5.26845 99.0836 6.20078 98.393 6.8396C97.7196 7.46115 96.5974 7.77193 95.0262 7.77193Z" fill="black"/>
<path d="M107.829 23V12.1228H103.452V9.27402H115.624V12.1228H111.248V23H107.829Z" fill="black"/>
<path d="M117.69 23V9.27402H121.031V18.2607L127.298 9.27402H130.38V23H127.039V14.0134L120.772 23H117.69Z" fill="black"/>
</svg>
