<svg width="373" height="70" viewBox="0 0 373 70" fill="none" xmlns="http://www.w3.org/2000/svg">
<path d="M59.2373 28.4522C57.8557 28.4522 56.5495 28.2512 55.3186 27.8493C54.0877 27.4222 53.0076 26.7942 52.0781 25.9653C51.1738 25.1112 50.4579 24.0436 49.9304 22.7625C49.4029 21.4563 49.1391 19.9365 49.1391 18.2033V17.4497C49.1391 15.7918 49.3903 14.3474 49.8927 13.1165C50.4202 11.8856 51.111 10.8683 51.9651 10.0644C52.8443 9.23549 53.8742 8.62006 55.0548 8.21814C56.2606 7.7911 57.5291 7.57758 58.8605 7.57758C62.0758 7.57758 64.4999 8.40654 66.1327 10.0644C67.7906 11.7224 68.6195 14.1213 68.6195 17.2613V19.3337H54.2259C54.2259 20.238 54.3766 21.0167 54.678 21.6698C54.9795 22.2978 55.3563 22.8128 55.8084 23.2147C56.2857 23.6166 56.8258 23.9055 57.4286 24.0813C58.0315 24.2571 58.6344 24.3451 59.2373 24.3451C60.4933 24.3451 61.4604 24.1567 62.1386 23.7799C62.842 23.378 63.3192 22.8379 63.5704 22.1596H68.2427C68.0418 23.1896 67.6775 24.1064 67.15 24.9103C66.6476 25.689 66.0071 26.3421 65.2283 26.8696C64.4748 27.3971 63.583 27.7865 62.5531 28.0377C61.5483 28.314 60.443 28.4522 59.2373 28.4522ZM54.2259 15.9048H63.7588C63.7588 15.101 63.6332 14.4353 63.382 13.9078C63.1308 13.3551 62.7917 12.9155 62.3647 12.589C61.9377 12.2373 61.4353 11.9987 60.8575 11.8731C60.3049 11.7224 59.702 11.647 59.0489 11.647C58.446 11.647 57.8557 11.7224 57.2779 11.8731C56.7253 12.0238 56.2229 12.275 55.7707 12.6267C55.3186 12.9783 54.9543 13.4305 54.678 13.9831C54.4017 14.5107 54.251 15.1512 54.2259 15.9048ZM70.3181 32.71V23.8552H72.5412C72.8175 23.4784 73.0436 22.9886 73.2194 22.3857C73.4204 21.7577 73.5836 21.0292 73.7092 20.2003C73.86 19.3713 73.9604 18.4545 74.0107 17.4497C74.086 16.4198 74.1237 15.2894 74.1237 14.0585V8.02974H89.7231V23.8552H92.1723V32.71H87.8391V28H74.6135V32.71H70.3181ZM77.4395 23.8552H84.7494V12.1745H78.796V14.8121C78.796 16.7714 78.683 18.5173 78.4569 20.0496C78.2308 21.5819 77.8917 22.8504 77.4395 23.8552ZM95.2305 28V8.02974H100.091V21.1046L109.21 8.02974H113.694V28H108.833V14.9251L99.7144 28H95.2305ZM118.228 28V8.02974H123.202V15.7541H131.718V8.02974H136.691V28H131.718V19.8989H123.202V28H118.228ZM141.226 28V8.02974H146.2V14.8498H149.704C152.292 14.8498 154.226 15.4024 155.507 16.5077C156.788 17.613 157.429 19.2583 157.429 21.4437C157.429 22.4234 157.278 23.3277 156.976 24.1567C156.7 24.9605 156.248 25.6513 155.62 26.2291C154.992 26.7817 154.188 27.2213 153.208 27.5478C152.254 27.8493 151.086 28 149.704 28H141.226ZM146.2 24.119H149.139C150.37 24.119 151.224 23.8929 151.701 23.4408C152.204 22.9886 152.455 22.3229 152.455 21.4437C152.455 20.5143 152.204 19.8361 151.701 19.409C151.224 18.982 150.37 18.7685 149.139 18.7685H146.2V24.119ZM159.614 28V8.02974H164.588V28H159.614ZM169.118 28V8.02974H173.979V21.1046L183.097 8.02974H187.581V28H182.721V14.9251L173.602 28H169.118ZM178.35 5.84432C176.064 5.84432 174.418 5.39216 173.414 4.48785C172.434 3.55841 171.944 2.20194 171.944 0.418433H176.428C176.428 1.27251 176.591 1.88794 176.918 2.26474C177.244 2.61642 177.722 2.79226 178.35 2.79226C179.003 2.79226 179.48 2.61642 179.782 2.26474C180.108 1.88794 180.271 1.27251 180.271 0.418433H184.755C184.755 2.20194 184.253 3.55841 183.248 4.48785C182.268 5.39216 180.636 5.84432 178.35 5.84432Z" fill="url(#paint0_linear_4_360)"/>
<path d="M50.0811 69.5359V42.0297H54.678V45.0818C55.2307 44.1021 56.0596 43.2732 57.1649 42.5949C58.2953 41.9167 59.6392 41.5776 61.1966 41.5776C63.9096 41.5776 65.9945 42.4065 67.4515 44.0644C68.9335 45.7224 69.6746 48.1841 69.6746 51.4497V52.2033C69.6746 53.8863 69.4736 55.3809 69.0717 56.6872C68.6698 57.9683 68.092 59.0359 67.3384 59.8899C66.6099 60.7189 65.7182 61.3594 64.6632 61.8116C63.6332 62.2386 62.4777 62.4522 61.1966 62.4522C59.8653 62.4522 58.6721 62.1633 57.617 61.5855C56.562 60.9826 55.7079 60.1663 55.0548 59.1363V69.5359H50.0811ZM59.9909 58.2697C60.644 58.2697 61.2469 58.1441 61.7995 57.8929C62.3773 57.6166 62.8671 57.2272 63.269 56.7248C63.696 56.2224 64.0226 55.5944 64.2487 54.8409C64.4748 54.0873 64.5878 53.2081 64.5878 52.2033V51.4497C64.5878 50.4951 64.4748 49.6662 64.2487 48.9628C64.0477 48.2595 63.7337 47.6691 63.3067 47.1919C62.9048 46.7146 62.4149 46.3629 61.8372 46.1368C61.2845 45.8856 60.6691 45.76 59.9909 45.76C59.2875 45.76 58.6344 45.8731 58.0315 46.0992C57.4286 46.3001 56.9011 46.6267 56.449 47.0788C56.0219 47.5059 55.6828 48.0208 55.4316 48.6237C55.1804 49.2266 55.0548 49.9174 55.0548 50.6961V52.9569C55.0548 53.7858 55.1804 54.5269 55.4316 55.18C55.6828 55.8331 56.0219 56.3983 56.449 56.8756C56.9011 57.3277 57.4286 57.6794 58.0315 57.9306C58.6344 58.1567 59.2875 58.2697 59.9909 58.2697ZM79.2917 62.4522C78.2116 62.4522 77.2445 62.2889 76.3904 61.9623C75.5614 61.6358 74.8581 61.1962 74.2803 60.6435C73.7026 60.0909 73.263 59.4378 72.9615 58.6842C72.6601 57.9055 72.5094 57.064 72.5094 56.1596C72.5094 54.1752 73.1122 52.6931 74.318 51.7134C75.5237 50.7086 77.3073 50.2062 79.6685 50.2062H85.6219V49.1889C85.6219 47.8073 85.2954 46.8527 84.6422 46.3252C84.0142 45.7977 83.1099 45.534 81.9293 45.534C80.824 45.534 80.0076 45.7349 79.4801 46.1368C78.9526 46.5136 78.6637 47.0286 78.6135 47.6817H73.6398C73.69 46.8025 73.9161 45.9987 74.318 45.2702C74.7199 44.5166 75.2725 43.876 75.9759 43.3485C76.7044 42.7959 77.5836 42.3689 78.6135 42.0674C79.6434 41.7409 80.8115 41.5776 82.1177 41.5776C83.3988 41.5776 84.5543 41.7157 85.5842 41.9921C86.6393 42.2684 87.531 42.7205 88.2595 43.3485C89.0131 43.9765 89.5908 44.7804 89.9928 45.76C90.3947 46.7397 90.5956 47.9203 90.5956 49.3019V56.9132C90.5956 57.9683 90.6082 58.8977 90.6333 59.7015C90.6836 60.4803 90.7589 61.2464 90.8594 62H86.2248C86.1746 61.5227 86.1243 61.0957 86.0741 60.7189C86.049 60.317 86.0364 59.8523 86.0364 59.3247C85.7601 59.7518 85.4084 60.1663 84.9814 60.5682C84.5543 60.945 84.0645 61.2715 83.5119 61.5478C82.9592 61.8242 82.3312 62.0377 81.6279 62.1884C80.9245 62.3642 80.1458 62.4522 79.2917 62.4522ZM80.7989 58.7219C81.452 58.7219 82.0675 58.6339 82.6452 58.4581C83.2481 58.2571 83.7631 57.9808 84.1901 57.6292C84.6422 57.2524 84.9939 56.8002 85.2451 56.2727C85.4963 55.72 85.6219 55.1172 85.6219 54.4641V53.4467H80.6105C79.6308 53.4467 78.8772 53.6853 78.3497 54.1626C77.8473 54.6148 77.5961 55.2176 77.5961 55.9712C77.5961 56.7751 77.8473 57.4408 78.3497 57.9683C78.8521 58.4707 79.6685 58.7219 80.7989 58.7219ZM103.791 62.4522C102.384 62.4522 101.078 62.2386 99.8722 61.8116C98.6665 61.3846 97.624 60.7566 96.7448 59.9276C95.8907 59.0735 95.2125 58.0059 94.7101 56.7248C94.2328 55.4437 93.9942 53.9365 93.9942 52.2033V51.4497C93.9942 49.842 94.2579 48.4353 94.7854 47.2295C95.313 45.9987 96.0163 44.9688 96.8955 44.1398C97.7998 43.2857 98.8423 42.6452 100.023 42.2181C101.229 41.7911 102.485 41.5776 103.791 41.5776C105.198 41.5776 106.428 41.766 107.484 42.1428C108.564 42.5196 109.481 43.0345 110.234 43.6876C110.988 44.3408 111.578 45.1069 112.005 45.9861C112.432 46.8653 112.708 47.8073 112.834 48.8121H107.747C107.471 47.8827 107.031 47.1542 106.428 46.6267C105.826 46.074 104.946 45.7977 103.791 45.7977C103.138 45.7977 102.522 45.9108 101.945 46.1368C101.392 46.3629 100.902 46.7146 100.475 47.1919C100.048 47.644 99.7089 48.2218 99.4577 48.9251C99.2065 49.6285 99.0809 50.47 99.0809 51.4497V52.2033C99.0809 53.2583 99.194 54.1626 99.4201 54.9162C99.6713 55.6698 100.01 56.2978 100.437 56.8002C100.864 57.2775 101.367 57.6292 101.945 57.8552C102.522 58.0813 103.138 58.1943 103.791 58.1943C104.796 58.1943 105.637 57.9431 106.315 57.4408C107.019 56.9384 107.496 56.1973 107.747 55.2176H112.834C112.708 56.3229 112.394 57.3277 111.892 58.232C111.415 59.1112 110.787 59.8648 110.008 60.4928C109.229 61.1208 108.312 61.6106 107.257 61.9623C106.228 62.2889 105.072 62.4522 103.791 62.4522ZM127.922 62V54.6901C127.344 55.0167 126.666 55.3181 125.887 55.5944C125.109 55.8708 124.116 56.0089 122.911 56.0089C120.424 56.0089 118.578 55.4312 117.372 54.2757C116.166 53.1201 115.563 51.299 115.563 48.8121V42.0297H120.537V48.2469C120.537 49.5531 120.813 50.47 121.366 50.9975C121.918 51.525 122.873 51.7888 124.23 51.7888C125.159 51.7888 125.938 51.6883 126.566 51.4874C127.219 51.2613 127.671 51.0352 127.922 50.8091V42.0297H132.896V62H127.922ZM146.813 62.4522C145.432 62.4522 144.125 62.2512 142.895 61.8493C141.664 61.4222 140.583 60.7942 139.654 59.9653C138.75 59.1112 138.034 58.0436 137.506 56.7625C136.979 55.4563 136.715 53.9365 136.715 52.2033V51.4497C136.715 49.7918 136.966 48.3474 137.469 47.1165C137.996 45.8856 138.687 44.8683 139.541 44.0644C140.42 43.2355 141.45 42.6201 142.631 42.2181C143.837 41.7911 145.105 41.5776 146.436 41.5776C149.652 41.5776 152.076 42.4065 153.709 44.0644C155.367 45.7224 156.195 48.1213 156.195 51.2613V53.3337H141.802C141.802 54.238 141.953 55.0167 142.254 55.6698C142.555 56.2978 142.932 56.8128 143.384 57.2147C143.862 57.6166 144.402 57.9055 145.005 58.0813C145.607 58.2571 146.21 58.3451 146.813 58.3451C148.069 58.3451 149.036 58.1567 149.715 57.7799C150.418 57.378 150.895 56.8379 151.146 56.1596H155.819C155.618 57.1896 155.253 58.1064 154.726 58.9103C154.224 59.689 153.583 60.3421 152.804 60.8696C152.051 61.3971 151.159 61.7865 150.129 62.0377C149.124 62.314 148.019 62.4522 146.813 62.4522ZM141.802 49.9048H151.335C151.335 49.101 151.209 48.4353 150.958 47.9078C150.707 47.3551 150.368 46.9155 149.941 46.589C149.514 46.2373 149.011 45.9987 148.433 45.8731C147.881 45.7224 147.278 45.647 146.625 45.647C146.022 45.647 145.432 45.7224 144.854 45.8731C144.301 46.0238 143.799 46.275 143.347 46.6267C142.895 46.9783 142.53 47.4305 142.254 47.9831C141.978 48.5107 141.827 49.1512 141.802 49.9048ZM164.265 62V46.1745H157.897V42.0297H175.606V46.1745H169.238V62H164.265ZM178.612 62V42.0297H183.585V49.7541H192.101V42.0297H197.075V62H192.101V53.8989H183.585V62H178.612ZM201.61 62V42.0297H206.583V48.8498H210.087C212.675 48.8498 214.609 49.4024 215.89 50.5077C217.171 51.613 217.812 53.2583 217.812 55.4437C217.812 56.4234 217.661 57.3277 217.36 58.1567C217.083 58.9605 216.631 59.6513 216.003 60.2291C215.375 60.7817 214.571 61.2213 213.592 61.5478C212.637 61.8493 211.469 62 210.087 62H201.61ZM206.583 58.119H209.522C210.753 58.119 211.607 57.8929 212.085 57.4408C212.587 56.9886 212.838 56.3229 212.838 55.4437C212.838 54.5143 212.587 53.8361 212.085 53.409C211.607 52.982 210.753 52.7685 209.522 52.7685H206.583V58.119ZM219.997 62V42.0297H224.971V62H219.997ZM229.501 62V42.0297H234.362V55.1046L243.481 42.0297H247.964V62H243.104V48.9251L233.985 62H229.501ZM238.733 39.8443C236.447 39.8443 234.802 39.3922 233.797 38.4878C232.817 37.5584 232.327 36.2019 232.327 34.4184H236.811C236.811 35.2725 236.975 35.8879 237.301 36.2647C237.628 36.6164 238.105 36.7923 238.733 36.7923C239.386 36.7923 239.863 36.6164 240.165 36.2647C240.491 35.8879 240.655 35.2725 240.655 34.4184H245.138C245.138 36.2019 244.636 37.5584 243.631 38.4878C242.652 39.3922 241.019 39.8443 238.733 39.8443ZM261.183 62V42.0297H266.157V57.8552H273.919V42.0297H278.893V57.8552H281.719V66.71H277.386V62H261.183ZM293.852 62.4522C292.471 62.4522 291.165 62.2512 289.934 61.8493C288.703 61.4222 287.623 60.7942 286.693 59.9653C285.789 59.1112 285.073 58.0436 284.546 56.7625C284.018 55.4563 283.754 53.9365 283.754 52.2033V51.4497C283.754 49.7918 284.006 48.3474 284.508 47.1165C285.035 45.8856 285.726 44.8683 286.58 44.0644C287.459 43.2355 288.489 42.6201 289.67 42.2181C290.876 41.7911 292.144 41.5776 293.476 41.5776C296.691 41.5776 299.115 42.4065 300.748 44.0644C302.406 45.7224 303.235 48.1213 303.235 51.2613V53.3337H288.841C288.841 54.238 288.992 55.0167 289.293 55.6698C289.595 56.2978 289.971 56.8128 290.424 57.2147C290.901 57.6166 291.441 57.9055 292.044 58.0813C292.647 58.2571 293.25 58.3451 293.852 58.3451C295.108 58.3451 296.076 58.1567 296.754 57.7799C297.457 57.378 297.934 56.8379 298.186 56.1596H302.858C302.657 57.1896 302.293 58.1064 301.765 58.9103C301.263 59.689 300.622 60.3421 299.844 60.8696C299.09 61.3971 298.198 61.7865 297.168 62.0377C296.164 62.314 295.058 62.4522 293.852 62.4522ZM288.841 49.9048H298.374C298.374 49.101 298.248 48.4353 297.997 47.9078C297.746 47.3551 297.407 46.9155 296.98 46.589C296.553 46.2373 296.05 45.9987 295.473 45.8731C294.92 45.7224 294.317 45.647 293.664 45.647C293.061 45.647 292.471 45.7224 291.893 45.8731C291.341 46.0238 290.838 46.275 290.386 46.6267C289.934 46.9783 289.57 47.4305 289.293 47.9831C289.017 48.5107 288.866 49.1512 288.841 49.9048ZM306.811 62V42.0297H311.785V49.7541H320.3V42.0297H325.274V62H320.3V53.8989H311.785V62H306.811ZM334.67 62V46.1745H328.302V42.0297H346.011V46.1745H339.643V62H334.67ZM349.017 69.5359V42.0297H353.614V45.0818C354.166 44.1021 354.995 43.2732 356.101 42.5949C357.231 41.9167 358.575 41.5776 360.132 41.5776C362.845 41.5776 364.93 42.4065 366.387 44.0644C367.869 45.7224 368.61 48.1841 368.61 51.4497V52.2033C368.61 53.8863 368.409 55.3809 368.007 56.6872C367.605 57.9683 367.028 59.0359 366.274 59.8899C365.546 60.7189 364.654 61.3594 363.599 61.8116C362.569 62.2386 361.413 62.4522 360.132 62.4522C358.801 62.4522 357.608 62.1633 356.553 61.5855C355.498 60.9826 354.644 60.1663 353.991 59.1363V69.5359H349.017ZM358.927 58.2697C359.58 58.2697 360.183 58.1441 360.735 57.8929C361.313 57.6166 361.803 57.2272 362.205 56.7248C362.632 56.2224 362.958 55.5944 363.184 54.8409C363.41 54.0873 363.523 53.2081 363.523 52.2033V51.4497C363.523 50.4951 363.41 49.6662 363.184 48.9628C362.983 48.2595 362.669 47.6691 362.242 47.1919C361.84 46.7146 361.351 46.3629 360.773 46.1368C360.22 45.8856 359.605 45.76 358.927 45.76C358.223 45.76 357.57 45.8731 356.967 46.0992C356.364 46.3001 355.837 46.6267 355.385 47.0788C354.958 47.5059 354.619 48.0208 354.367 48.6237C354.116 49.2266 353.991 49.9174 353.991 50.6961V52.9569C353.991 53.7858 354.116 54.5269 354.367 55.18C354.619 55.8331 354.958 56.3983 355.385 56.8756C355.837 57.3277 356.364 57.6794 356.967 57.9306C357.57 58.1567 358.223 58.2697 358.927 58.2697Z" fill="black"/>
<path d="M20.1348 8.63008L20.1348 14.9249L12.8587 14.9249L12.8587 35.8577L20.1348 30.2123L20.1348 37.906L12.813 43.6013L5.90301 43.6013L5.90302 14.9249L-0.000186321 14.9249L-0.00018577 8.63008L20.1348 8.63008Z" fill="url(#paint1_linear_4_360)"/>
<path d="M20.1348 59.4974L20.1348 53.2025L27.4108 53.2025L27.4108 32.2698L20.1348 37.9151L20.1348 30.2214L27.4566 24.5261L34.3665 24.5261L34.3665 53.2025L40.2697 53.2025L40.2697 59.4974L20.1348 59.4974Z" fill="black"/>
<defs>
<linearGradient id="paint0_linear_4_360" x1="210.41" y1="1" x2="210.41" y2="62.915" gradientUnits="userSpaceOnUse">
<stop stop-color="#5E4FE6"/>
<stop offset="1" stop-color="#9455FA"/>
</linearGradient>
<linearGradient id="paint1_linear_4_360" x1="5.99358" y1="52.6794" x2="5.99359" y2="2.62335" gradientUnits="userSpaceOnUse">
<stop stop-color="#5E4FE6"/>
<stop offset="1" stop-color="#9455FA"/>
</linearGradient>
</defs>
</svg>
